<?xml version="1.0" standalone="no"?>
<!DOCTYPE svg PUBLIC "-//W3C//DTD SVG 20010904//EN"
 "http://www.w3.org/TR/2001/REC-SVG-20010904/DTD/svg10.dtd">
<svg version="1.0" xmlns="http://www.w3.org/2000/svg"
 width="439.000000pt" height="568.000000pt" viewBox="0 0 439.000000 568.000000"
 preserveAspectRatio="xMidYMid meet">

<g transform="translate(0.000000,568.000000) scale(0.100000,-0.100000)"
fill="#000000" stroke="none">
<path d="M2144 4253 c-14 -15 -41 -53 -61 -86 l-35 -58 28 -31 c50 -52 58 -52
89 -6 l27 41 47 -74 c26 -41 69 -112 95 -159 27 -47 64 -98 81 -115 18 -16 84
-77 146 -135 l113 -105 -49 90 c-113 210 -337 582 -382 635 -31 38 -66 39 -99
3z"/>
<path d="M1901 3143 c-45 -52 -53 -78 -22 -70 44 11 59 -49 28 -109 -22 -42
-13 -72 36 -116 36 -32 44 -36 56 -23 12 12 9 18 -19 42 -18 15 -38 31 -44 35
-6 4 -7 10 -3 14 4 4 25 -7 46 -24 22 -18 42 -32 44 -32 3 0 40 44 84 98 43
53 80 99 83 102 3 3 16 17 29 32 l24 28 -28 22 c-69 56 -99 60 -144 22 -17
-14 -31 -23 -31 -20 0 4 -9 2 -21 -4 -16 -9 -25 -8 -39 5 -11 10 -18 22 -17
27 6 28 -25 14 -62 -29z m-1 -37 c0 -3 -4 -8 -10 -11 -5 -3 -10 -1 -10 4 0 6
5 11 10 11 6 0 10 -2 10 -4z"/>
<path d="M1300 2613 c-32 -100 -34 -120 -38 -266 -3 -146 -2 -164 22 -247 161
-562 764 -852 1287 -618 l70 31 -41 42 -41 42 -60 -24 c-91 -37 -183 -53 -306
-53 -249 0 -438 80 -605 259 -195 207 -265 503 -183 776 l27 89 -44 38 c-23
21 -46 38 -49 38 -3 0 -21 -48 -39 -107z"/>
<path d="M1562 2431 c-17 -98 -15 -146 8 -235 29 -115 73 -189 165 -282 62
-63 97 -89 159 -119 98 -47 140 -50 169 -13 19 25 19 29 4 51 -9 14 -40 33
-74 45 -79 30 -124 58 -190 123 -92 90 -137 204 -131 336 l3 77 -44 41 c-24
22 -47 41 -51 43 -4 1 -12 -29 -18 -67z"/>
</g>
</svg>
